<svg id="visual" viewBox="0 0 900 600" width="900" height="600" xmlns="http://www.w3.org/2000/svg" xmlns:xlink="http://www.w3.org/1999/xlink" version="1.1"><rect x="0" y="0" width="900" height="600" fill="#ffffff"></rect><defs><linearGradient id="grad1_0" x1="33.3%" y1="100%" x2="100%" y2="0%"><stop offset="20%" stop-color="#06bac5" stop-opacity="1"></stop><stop offset="80%" stop-color="#06bac5" stop-opacity="1"></stop></linearGradient></defs><defs><linearGradient id="grad1_1" x1="33.3%" y1="100%" x2="100%" y2="0%"><stop offset="20%" stop-color="#06bac5" stop-opacity="1"></stop><stop offset="80%" stop-color="#ffffff" stop-opacity="1"></stop></linearGradient></defs><defs><linearGradient id="grad2_0" x1="0%" y1="100%" x2="66.7%" y2="0%"><stop offset="20%" stop-color="#06bac5" stop-opacity="1"></stop><stop offset="80%" stop-color="#06bac5" stop-opacity="1"></stop></linearGradient></defs><defs><linearGradient id="grad2_1" x1="0%" y1="100%" x2="66.7%" y2="0%"><stop offset="20%" stop-color="#ffffff" stop-opacity="1"></stop><stop offset="80%" stop-color="#06bac5" stop-opacity="1"></stop></linearGradient></defs><g transform="translate(900, 600)"><path d="M-432.7 0C-424.7 -24.8 -416.7 -49.6 -403.8 -71.2C-390.9 -92.8 -373.1 -111.1 -363.7 -132.4C-354.3 -153.7 -353.3 -178 -345.5 -199.5C-337.8 -221 -323.4 -239.7 -311 -261C-298.7 -282.3 -288.4 -306.2 -273.2 -325.6C-258 -345 -237.8 -359.9 -216.3 -374.7C-194.9 -389.5 -172.2 -404.3 -146.7 -403.1C-121.3 -401.9 -93.1 -384.8 -68.2 -387C-43.3 -389.3 -21.7 -411 0 -432.7L0 0Z" fill="#a3dde2"></path><path d="M-216.3 0C-212.3 -12.4 -208.3 -24.8 -201.9 -35.6C-195.4 -46.4 -186.5 -55.5 -181.8 -66.2C-177.1 -76.8 -176.6 -89 -172.8 -99.8C-168.9 -110.5 -161.7 -119.8 -155.5 -130.5C-149.3 -141.1 -144.2 -153.1 -136.6 -162.8C-129 -172.5 -118.9 -179.9 -108.2 -187.3C-97.4 -194.8 -86.1 -202.2 -73.4 -201.6C-60.6 -201 -46.6 -192.4 -34.1 -193.5C-21.7 -194.6 -10.8 -205.5 0 -216.3L0 0Z" fill="#06bac5"></path></g><g transform="translate(0, 0)"><path d="M432.7 0C429.9 25.1 427.1 50.1 421.5 74.3C415.9 98.5 407.3 121.8 399.4 145.4C391.4 168.9 383.9 192.8 373.3 215.5C362.6 238.2 348.6 259.8 331.4 278.1C314.3 296.5 293.8 311.6 271.3 323.3C248.7 334.9 224.1 343 199.5 345.5C174.9 348 150.5 344.9 130.3 358C110.1 371.1 94.3 400.4 73.3 415.6C52.3 430.7 26.1 431.7 0 432.7L0 0Z" fill="#a3dde2"></path><path d="M216.3 0C215 12.5 213.6 25.1 210.7 37.2C207.9 49.2 203.7 60.9 199.7 72.7C195.7 84.5 192 96.4 186.6 107.7C181.3 119.1 174.3 129.9 165.7 139.1C157.1 148.2 146.9 155.8 135.6 161.6C124.4 167.5 112 171.5 99.8 172.8C87.5 174 75.2 172.5 65.2 179C55.1 185.6 47.1 200.2 36.6 207.8C26.1 215.4 13.1 215.8 0 216.3L0 0Z" fill="#06bac5"></path></g></svg>