<svg width="1184" height="863" viewBox="0 0 1184 863" fill="none" xmlns="http://www.w3.org/2000/svg">
<path d="M1 548V1H1172.5C1172.5 1 1196.71 63.0689 1172.5 63C1161.23 62.9679 1157.31 54.0531 1147 49.5C1016.21 -8.27612 907.905 148.844 867.5 286C833.348 401.93 977.356 479.182 928 589.5C925.61 594.841 926.73 600.376 921.5 603C917.66 604.926 914.796 603.015 910.5 603C806.783 602.627 736.924 529.097 646 579C640.628 581.949 632.5 587 632.5 587L432.5 862H413.5C413.5 862 186.54 812.659 104.5 705C63.5671 651.285 84.3194 590.703 32 548C28.0063 544.74 26.4557 541.42 21.5 540C13.2386 537.633 1 548 1 548Z" fill="white" stroke="black"/>
</svg>
